<?xml version="1.0" standalone="no"?>
<!DOCTYPE svg PUBLIC "-//W3C//DTD SVG 20010904//EN"
 "http://www.w3.org/TR/2001/REC-SVG-20010904/DTD/svg10.dtd">
<svg version="1.0" xmlns="http://www.w3.org/2000/svg"
 width="2458.000000pt" height="496.000000pt" viewBox="0 0 2458.000000 496.000000"
 preserveAspectRatio="xMidYMid meet">

<g transform="translate(0.000000,496.000000) scale(0.100000,-0.100000)"
fill="#000000" stroke="none">
<path d="M3124 4799 c-16 -5 -40 -19 -51 -31 -18 -19 -85 -138 -152 -270 -16
-31 -30 -34 -69 -14 -63 32 -279 97 -384 115 -163 28 -276 34 -418 21 -411
-37 -798 -214 -1101 -502 -218 -209 -401 -519 -479 -813 -38 -147 -52 -271
-53 -460 0 -249 30 -410 120 -635 121 -303 343 -594 586 -769 48 -34 87 -67
87 -72 0 -6 -20 -44 -45 -84 -116 -192 -130 -235 -99 -301 33 -69 109 -98 187
-71 42 14 47 14 103 -9 102 -42 262 -94 289 -94 32 0 68 -18 60 -30 -3 -5 -44
-27 -91 -49 -109 -51 -210 -119 -291 -194 -80 -75 -153 -172 -153 -203 0 -13
13 -38 29 -56 l29 -33 1074 -3 c590 -2 1097 0 1127 3 62 8 101 41 101 85 0 36
-68 127 -149 203 -121 111 -322 228 -453 263 -34 10 -67 21 -73 26 -16 14 15
32 110 68 214 78 449 224 640 395 182 164 359 393 469 610 31 60 56 113 56
117 0 4 11 31 24 60 13 29 29 71 35 93 7 22 16 49 21 60 10 24 46 173 67 275
21 103 24 563 4 670 -28 153 -90 373 -131 465 -10 22 -33 74 -51 115 -47 104
-177 317 -244 401 -131 162 -331 351 -473 448 -52 35 -60 45 -66 80 -8 52 -56
107 -104 121 -42 11 -46 11 -88 -1z m269 -418 c268 -215 442 -444 583 -766
162 -369 198 -892 89 -1270 -28 -94 -78 -243 -93 -271 -5 -10 -28 -59 -52
-109 -199 -422 -638 -804 -1098 -955 -212 -69 -338 -91 -568 -97 -213 -6 -328
3 -493 37 -110 23 -336 98 -363 120 -18 14 -17 17 9 66 16 28 35 62 44 74 l16
24 119 -42 c205 -71 270 -85 483 -102 489 -40 1017 160 1370 520 267 271 456
655 500 1015 23 191 9 454 -35 630 -100 403 -334 762 -652 1000 -51 37 -92 75
-92 84 0 9 9 30 20 46 12 17 27 45 35 63 9 21 21 32 34 32 11 0 76 -45 144
-99z m-927 45 c232 -46 463 -141 637 -262 119 -83 316 -286 411 -423 73 -107
77 -115 60 -128 -10 -7 -28 -13 -40 -13 -12 0 -59 -19 -104 -41 -329 -165
-413 -606 -166 -876 54 -59 54 -59 1 -132 -29 -39 -65 -148 -65 -195 0 -39 -9
-50 -85 -107 -77 -57 -310 -283 -379 -368 -145 -177 -198 -363 -149 -517 9
-30 14 -56 12 -59 -9 -9 -199 -36 -321 -45 -206 -15 -423 14 -631 87 -440 153
-811 522 -972 968 -139 384 -114 856 65 1231 47 97 178 305 202 320 13 8 68
-49 68 -71 0 -8 -16 -36 -37 -62 -45 -60 -99 -175 -114 -244 -15 -70 -7 -134
30 -250 46 -142 44 -165 -29 -338 -36 -88 -66 -202 -74 -289 -19 -204 86 -410
255 -498 47 -25 65 -29 139 -29 75 0 92 4 145 30 109 54 245 208 345 390 56
102 45 98 168 57 94 -31 119 -36 207 -36 83 -1 108 3 150 22 154 71 282 238
337 444 18 67 22 107 21 208 -2 312 -147 586 -395 747 -67 44 -179 89 -269
107 -30 6 -49 42 -49 90 0 23 11 48 35 79 42 55 80 129 90 175 4 21 15 37 28
42 12 5 96 9 187 9 135 0 187 -4 286 -23z m-681 -36 c4 -6 -6 -27 -22 -46 -59
-73 -70 -94 -83 -152 -10 -51 -10 -67 5 -117 33 -114 83 -167 173 -185 92 -18
123 -30 194 -72 94 -56 198 -168 248 -267 64 -128 84 -214 83 -361 -1 -146
-17 -210 -83 -321 -114 -192 -230 -222 -474 -125 -173 70 -177 68 -261 -89
-104 -194 -213 -335 -295 -379 -67 -37 -131 -33 -193 10 -93 65 -135 173 -124
319 7 91 17 123 83 290 43 109 48 128 48 200 -1 63 -8 101 -33 179 -27 81 -32
111 -29 162 5 81 49 168 134 264 81 92 83 116 20 174 -47 45 -96 111 -96 132
0 16 132 123 236 190 109 71 208 119 334 165 115 42 126 44 135 29z m1884
-944 c6 -7 20 -40 32 -72 120 -347 110 -773 -26 -1114 -111 -277 -330 -552
-573 -718 -115 -79 -291 -172 -326 -172 -34 0 -46 30 -46 111 0 125 73 243
280 449 80 80 186 177 237 215 50 39 98 82 107 97 10 16 16 50 16 90 0 83 35
156 96 201 53 39 78 85 65 120 -5 13 -39 47 -74 75 -101 79 -146 151 -168 266
-35 192 110 409 307 455 55 13 60 13 73 -3z m-1084 -2730 c223 -34 393 -99
583 -222 45 -29 82 -60 82 -67 0 -12 -145 -14 -900 -13 -1006 0 -947 -5 -840
68 176 120 352 190 581 232 100 18 381 19 494 2z"/>
<path d="M17856 2728 l4 -1053 202 0 203 0 5 495 5 495 24 48 c65 133 177 190
325 167 121 -19 182 -66 215 -169 20 -62 21 -84 21 -553 l0 -488 211 0 210 0
-4 543 c-4 602 -4 600 -72 740 -85 171 -235 259 -471 274 -148 9 -322 -43
-416 -126 -20 -17 -40 -31 -44 -31 -5 0 -8 158 -6 355 l4 355 -211 0 -210 0 5
-1052z"/>
<path d="M13454 2720 l0 -1050 208 0 207 0 0 1050 -1 1050 -207 0 -207 0 0
-1050z"/>
<path d="M5770 3435 l0 -205 -95 0 -95 0 0 -185 0 -185 94 0 95 0 3 -492 c3
-492 3 -493 26 -540 49 -99 100 -138 220 -169 90 -23 267 -35 375 -25 l77 8 0
173 0 173 -99 4 c-82 2 -105 7 -128 24 -55 41 -60 74 -68 476 l-7 367 153 3
154 3 0 180 0 180 -150 3 -150 2 0 203 0 202 -202 3 -203 2 0 -205z"/>
<path d="M7595 3215 c-146 -27 -268 -91 -335 -176 -52 -65 -61 -55 -54 61 l7
100 -204 0 -204 0 0 -765 0 -765 201 0 202 0 4 403 c4 395 5 403 29 471 19 57
36 82 90 138 92 95 163 125 340 143 54 6 57 8 63 37 3 17 6 106 6 199 l0 169
-37 -1 c-21 0 -69 -7 -108 -14z"/>
<path d="M8480 3216 c-128 -29 -225 -74 -320 -151 -58 -46 -85 -79 -160 -195
-14 -23 -58 -124 -75 -175 -30 -91 -45 -312 -26 -398 5 -23 15 -69 21 -102 14
-68 81 -211 131 -276 49 -65 149 -151 215 -186 124 -65 240 -93 383 -93 165 0
322 52 420 140 25 22 48 40 53 40 4 0 5 -34 1 -75 l-6 -75 207 0 206 0 0 765
0 765 -206 0 -207 0 6 -75 c6 -65 5 -75 -10 -75 -9 0 -31 17 -49 38 -41 48
-150 107 -235 127 -77 18 -270 18 -349 1z m412 -375 c67 -26 148 -95 184 -157
105 -178 73 -453 -66 -576 -125 -112 -339 -138 -497 -61 -66 33 -145 116 -180
191 -47 103 -47 295 1 403 45 102 151 193 259 220 62 16 237 4 299 -20z"/>
<path d="M12219 3220 c-144 -18 -297 -71 -401 -139 -162 -106 -281 -277 -318
-457 -6 -30 -11 -123 -11 -207 0 -134 3 -163 26 -242 43 -147 114 -252 245
-358 169 -136 427 -206 660 -178 171 21 294 69 422 163 73 54 183 172 174 186
-5 9 -281 168 -302 174 -6 2 -27 -11 -46 -28 -60 -55 -141 -102 -203 -120
-162 -47 -379 -4 -488 95 -28 25 -67 92 -81 139 l-7 22 599 0 c524 0 601 2
612 15 10 12 11 50 7 153 -8 213 -51 343 -162 489 -69 91 -150 156 -261 209
-152 73 -315 103 -465 84z m248 -390 c34 -16 83 -48 108 -71 45 -41 105 -141
105 -174 0 -13 -47 -15 -390 -15 -214 0 -390 3 -390 8 0 24 32 106 52 132 103
139 347 196 515 120z"/>
<path d="M14687 3215 c-170 -32 -305 -93 -371 -166 -72 -81 -91 -139 -91 -294
0 -121 2 -134 27 -188 39 -83 123 -161 223 -208 82 -39 224 -75 401 -103 186
-29 244 -58 244 -122 0 -44 -38 -86 -102 -114 -48 -20 -63 -22 -163 -17 -140
7 -312 61 -405 127 -15 11 -35 20 -43 20 -14 0 -217 -260 -217 -278 0 -15 172
-115 263 -153 139 -57 271 -81 452 -81 168 0 255 17 368 71 185 89 281 282
249 502 -14 96 -48 165 -112 227 -86 84 -201 126 -465 172 -197 34 -252 49
-285 80 -35 33 -41 88 -13 116 41 41 104 59 203 59 113 -1 192 -22 324 -90 49
-25 90 -45 92 -45 2 0 69 86 197 255 18 24 18 24 -30 60 -72 54 -237 130 -333
154 -113 29 -306 36 -413 16z"/>
<path d="M16550 3207 c-105 -32 -168 -65 -218 -114 -48 -48 -78 -57 -69 -20 3
12 9 46 13 75 l7 52 -210 0 -210 0 1 -1010 1 -1010 202 0 c111 0 203 3 206 8
2 4 1 147 -2 317 -4 171 -3 314 0 318 4 5 33 -15 64 -43 114 -103 252 -146
443 -137 132 5 205 22 309 72 184 86 304 225 372 431 132 399 -24 843 -352
1004 -120 58 -181 72 -342 76 -124 4 -149 1 -215 -19z m314 -375 c73 -34 154
-109 186 -171 46 -90 62 -227 40 -342 -23 -123 -102 -224 -218 -281 -64 -32
-71 -33 -187 -33 -158 1 -213 21 -303 111 -88 89 -114 149 -120 282 -7 166 23
265 108 352 85 87 183 122 331 117 83 -3 106 -8 163 -35z"/>
<path d="M20340 3219 c-107 -15 -273 -71 -360 -123 -145 -87 -275 -245 -318
-387 -59 -194 -51 -450 21 -620 42 -102 165 -243 273 -315 105 -70 278 -126
430 -140 93 -8 256 11 352 42 91 30 184 79 262 139 65 50 164 160 156 173 -8
14 -292 172 -308 172 -8 0 -23 -9 -32 -19 -35 -39 -153 -110 -210 -126 -173
-50 -410 2 -507 113 -31 35 -68 105 -69 130 0 9 127 12 600 12 563 0 601 1
608 18 11 28 6 272 -8 336 -30 144 -117 295 -225 393 -171 155 -427 233 -665
202z m265 -388 c33 -16 78 -44 100 -64 43 -37 99 -124 109 -169 l6 -28 -391 0
-391 0 7 36 c9 48 59 122 114 168 23 20 44 36 44 36 1 0 34 11 72 25 56 20 89
25 170 25 90 0 106 -3 160 -29z"/>
<path d="M22375 3215 c-136 -24 -306 -117 -338 -184 -7 -14 -20 -27 -30 -29
-17 -3 -18 4 -11 97 l7 101 -212 0 -211 0 0 -765 0 -765 210 0 210 0 0 383 c0
307 3 395 16 447 45 194 207 312 444 323 l55 2 3 203 2 202 -37 -1 c-21 0 -70
-7 -108 -14z"/>
<path d="M23385 3219 c-341 -44 -593 -235 -692 -523 -27 -77 -28 -89 -28 -266
0 -174 2 -190 27 -271 109 -340 490 -563 892 -520 128 13 258 54 357 112 72
41 177 133 229 200 l30 37 -150 86 c-82 47 -158 86 -169 86 -10 0 -25 -8 -32
-17 -33 -40 -136 -104 -197 -124 -95 -29 -243 -29 -332 1 -95 32 -131 53 -177
103 -47 51 -58 69 -68 115 l-7 32 601 0 c441 0 602 3 607 11 12 20 9 261 -5
319 -42 181 -91 271 -216 395 -76 77 -105 98 -185 138 -156 76 -327 107 -485
86z m265 -392 c74 -39 135 -100 171 -169 49 -96 81 -88 -356 -88 l-385 0 0 25
c0 53 65 147 134 195 78 53 147 70 271 68 99 -3 116 -6 165 -31z"/>
<path d="M9760 3187 c0 -7 6 -21 13 -32 16 -23 142 -266 345 -665 79 -157 182
-357 227 -445 45 -88 112 -220 149 -292 37 -73 71 -133 76 -133 5 0 37 55 71
123 34 67 96 190 139 272 43 83 154 301 247 485 94 184 191 373 215 420 25 47
69 129 97 183 l51 97 -222 0 c-123 0 -228 -4 -235 -8 -7 -4 -23 -32 -36 -62
-37 -84 -122 -265 -227 -485 -35 -71 -65 -143 -69 -160 -5 -23 -12 -30 -31
-30 -20 0 -26 8 -36 42 -7 23 -39 97 -72 165 -33 68 -76 159 -97 203 -21 44
-54 116 -75 160 -21 44 -47 101 -58 128 l-21 47 -225 0 c-177 0 -226 -3 -226
-13z"/>
</g>
</svg>
